<svg xmlns="http://www.w3.org/2000/svg" viewBox="0 0 563.45 383.21"><defs><style>.cls-1{fill:#3290b3;}</style></defs><title>window8</title><g id="windows"><g id="window8"><path class="cls-1" d="M522.57,16.2v-9h-104L411.39,0H135.11L122,13.14H14V58.33L0,72.3V244.08l10.33,10.34V354.56l15.9,15.9H156.82l12.76,12.75H344.36l15.73-15.72,8.52,8.52H539.23l14.36-14.36V250.2l9.86-9.86V57.08ZM15.14,245.51,4.64,235l10.5-10.5Zm0-29.72L4.64,205.3l10.5-10.5ZM401.29,368.86l-10.5-10.5h21Zm29.72,0-10.5-10.5h21Zm29.71,0-10.5-10.5h21Zm29.71,0-10.49-10.5h21Zm52-155.81V333l-20.87,20.87H364.65l-21.83,21.83H270.06l-15.58-15.57H150.31l-11.74-11.75-6.13,6.13H30.06V280.2l-6.75-6.74,10.87-10.87v-56L7.41,179.86V121.73l19.31-19.31v-65l15-15H119.3l4.25-4.25L134.31,7.37H404.1v7.94h97.66l45.57,45.57v132l7.63,7.63Z"/><rect class="cls-1" x="392.29" y="10.39" width="4.91" height="4.91"/><rect class="cls-1" x="383" y="10.39" width="4.91" height="4.91"/><rect class="cls-1" x="183.44" y="10.39" width="4.91" height="4.91"/><rect class="cls-1" x="174.15" y="10.39" width="4.91" height="4.91"/><rect class="cls-1" x="539.44" y="186.61" width="4.91" height="4.91" transform="translate(730.97 -352.83) rotate(90)"/><rect class="cls-1" x="539.44" y="177.33" width="4.91" height="4.91" transform="translate(721.69 -362.12) rotate(90)"/></g></g></svg>